<svg width="32" height="44" viewBox="0 0 32 44" fill="none" xmlns="http://www.w3.org/2000/svg">
<path fill-rule="evenodd" clip-rule="evenodd" d="M19.8008 6.68798C25.088 7.20995 29.234 8.8259 29.6936 13.6395C30.0055 17.1487 28.5261 19.2367 26.0797 20.4134C30.0294 21.3992 32.4319 23.717 31.9354 28.8587C31.331 35.3032 26.5098 36.977 19.6169 37.3302L19.6277 43.9835L15.5683 43.9888L15.5574 37.3354C15.1139 37.3289 14.6501 37.3356 14.1744 37.3424H14.1742C13.5384 37.3515 12.8815 37.3609 12.2231 37.3397L12.2339 43.9931L8.18188 43.9983L8.17108 37.3449L0.052787 37.1845L0.73694 32.322C0.73694 32.322 3.80307 32.3895 3.74621 32.3543C4.87499 32.3483 5.21001 31.548 5.29345 31.0224L5.27325 20.3569L5.30514 12.7659C5.18048 11.9746 4.64204 11.0252 2.98253 10.9964C3.07291 10.9154 0.0102776 11.0002 0.0102776 11.0002L0 6.54254L8.31919 6.53185L8.30861 0.0147627L12.4997 0.00937539L12.5103 6.52646C13.3194 6.50406 14.1175 6.51047 14.9246 6.51695C15.1895 6.51907 15.4554 6.52121 15.7229 6.52234L15.7123 0.00524595L19.7901 0L19.8008 6.68798ZM12.0114 18.9498L12.2172 18.9587C14.6845 19.0662 22.0001 19.3852 22.0114 14.9498C22.0001 10.7388 15.7741 10.8746 12.8812 10.9378H12.8812H12.8812C12.5395 10.9452 12.2444 10.9517 12.0114 10.9498V18.9498ZM12.3571 32.0142C12.2275 32.0089 12.1081 32.004 11.9999 31.9999L11.9999 23.9999C12.2577 24.0023 12.5818 23.9983 12.9566 23.9936C16.3754 23.951 24.0116 23.8559 23.9754 28.1011C24.0139 32.4922 15.3945 32.1388 12.3571 32.0142Z" fill="#28565D"/>
</svg>
