<svg width="32" height="32" viewBox="0 0 32 32" fill="none" xmlns="http://www.w3.org/2000/svg">
<path d="M17.2 31.7422C16.8215 31.9074 16.413 31.9926 16 31.9926C15.587 31.9926 15.1785 31.9074 14.8 31.7422L0.6 25.5302C0.421748 25.4524 0.270049 25.3243 0.163481 25.1616C0.0569126 24.9989 0.0001002 24.8087 0 24.6142V5.59418C0.000120574 5.38112 0.0682864 5.17367 0.194562 5.00207C0.320838 4.83046 0.498621 4.70367 0.702 4.64018L15.102 0.138182C15.6879 -0.0460608 16.3161 -0.0460608 16.902 0.138182L31.302 4.64418C31.504 4.70817 31.6804 4.83465 31.8059 5.00539C31.9313 5.17614 31.9993 5.38231 32 5.59418V24.6142C31.9999 24.8087 31.9431 24.9989 31.8365 25.1616C31.7299 25.3243 31.5783 25.4524 31.4 25.5302L17.2 31.7422Z" fill="#15582E"/>
</svg>
